<?xml version="1.0" encoding="iso-8859-1"?>
<!-- Generator: Adobe Illustrator 16.0.0, SVG Export Plug-In . SVG Version: 6.00 Build 0)  -->
<!DOCTYPE svg PUBLIC "-//W3C//DTD SVG 1.1//EN" "http://www.w3.org/Graphics/SVG/1.1/DTD/svg11.dtd">
<svg version="1.1" id="icon-tag" xmlns="http://www.w3.org/2000/svg" x="0px" y="0px"
	 width="16" height="16" viewBox="0 0 533.333 533.333" style="enable-background:new 0 0 533.333 533.333;">
		<g>
			<path d="M483.236,0H332.943c-27.556,0-66.04,15.94-85.523,35.424L14.612,268.231c-19.483,19.483-19.483,51.367,0,70.85
		L194.253,518.72c19.483,19.484,51.365,19.484,70.849,0L497.91,285.913c19.483-19.484,35.424-57.969,35.424-85.522V50.098
		C533.333,22.544,510.79,0,483.236,0z M416.667,166.667c-27.614,0-50-22.385-50-50c0-27.614,22.386-50,50-50s50,22.386,50,50
		C466.667,144.281,444.281,166.667,416.667,166.667z"/>
		</g>
		<g>
		</g>
		<g>
		</g>
		<g>
		</g>
		<g>
		</g>
		<g>
		</g>
		<g>
		</g>
		<g>
		</g>
		<g>
		</g>
		<g>
		</g>
		<g>
		</g>
		<g>
		</g>
		<g>
		</g>
		<g>
		</g>
		<g>
		</g>
		<g>
		</g>
</svg>
